<svg width="130" height="130" viewBox="0 0 130 130" fill="none" xmlns="http://www.w3.org/2000/svg">
<rect width="130" height="130" fill="#F9F9F9"/>
<path d="M64.9999 71.1095C78.7137 71.1095 89.8401 58.795 89.8401 43.6168C89.8401 28.4385 78.7137 16.124 64.9999 16.124C51.2861 16.124 40.1597 28.4385 40.1597 43.6168C40.1597 58.795 51.2861 71.1095 64.9999 71.1095ZM87.0801 77.219H77.5752C73.7457 79.1664 69.4849 80.2737 64.9999 80.2737C60.5149 80.2737 56.2713 79.1664 52.4246 77.219H42.9198C30.7239 77.219 20.8396 88.1588 20.8396 101.657V104.712C20.8396 109.771 24.5484 113.876 29.1197 113.876H100.88C105.451 113.876 109.16 109.771 109.16 104.712V101.657C109.16 88.1588 99.2759 77.219 87.0801 77.219Z" fill="#2B2448"/>
</svg>
