<svg width="17" height="15" viewBox="0 0 17 15" fill="none" xmlns="http://www.w3.org/2000/svg">
<path d="M10.5534 0.635199L10.5534 0.635182C10.361 0.468963 10.0625 0.608145 10.0625 0.85987V3.51788V4.01219L9.56823 4.01785C6.91176 4.04826 4.62525 4.33269 3.01397 5.18009C2.21953 5.5979 1.59951 6.14753 1.17459 6.86657C0.748997 7.58676 0.500004 8.50934 0.500004 9.70223C0.500004 11.5478 1.70704 13.4307 3.06103 14.4155L3.06104 14.4155C3.08518 14.4331 3.10564 14.4376 3.12413 14.4375C3.14593 14.4374 3.1706 14.4303 3.192 14.4163C3.21342 14.4022 3.222 14.3879 3.22445 14.3818C3.22448 14.3817 3.22452 14.3816 3.22458 14.3815C3.22547 14.3795 3.22873 14.3722 3.22195 14.3505L3.22195 14.3505C2.45539 11.899 2.56069 10.1105 3.79653 8.97214C4.39013 8.42536 5.19688 8.08018 6.15202 7.86419C7.10904 7.64777 8.25224 7.55288 9.55531 7.53412L10.0625 7.52682V8.03407V10.9531C10.0625 11.2047 10.3607 11.3443 10.5534 11.1778L10.5534 11.1778L16.3973 6.13095C16.3973 6.13094 16.3973 6.13094 16.3973 6.13093C16.5342 6.0127 16.5343 5.79988 16.3973 5.68158C16.3973 5.68157 16.3973 5.68156 16.3973 5.68155L10.5534 0.635199Z" stroke="#2C254A"/>
</svg>
